PathFileType  4	(X/Y/Z) C:\Users\antoi\Documents\MyRepositories\mobilecap\ResultsAnalysis
DataRate	CameraRate	NumFrames	NumMarkers	Units	OrigDataRate	OrigDataStartFrame	OrigNumFrames
100.0	100.0	4	51	mm	100.0	166	1321
Frame#	Time	r_knee			r_shank_antsup			r_ankle			r_calc			r_5meta			r_toe			L_knee			L_shank_antsup			L_ankle			L_calc			L_5meta			L_toe			r_sh2			r_sh3			r_sh4			L_sh2			L_sh3			r_thigh1			r_thigh2			r_thigh3			r_thigh4			r_thigh5			L_thigh1			L_thigh2			L_thigh3			L_thigh4			r.ASIS			r.PSIS			L.ASIS			L.PSIS			C7			R_Shoulder			L_Shoulder			R_Sternum			L_Sternum			R_humerus			R_elbow_med			R_elbow_lat			R_forearm			R_wrist_radius			R_wrist_ulna			L_humerus			L_elbow_med			L_elbow_lat			L_forearm			L_wrist_radius			L_wrist_ulna			R_HJC			L_HJC			R_HJC_reg			L_HJC_reg			
		X1	Y1	Z1	X2	Y2	Z2	X3	Y3	Z3	X4	Y4	Z4	X5	Y5	Z5	X6	Y6	Z6	X7	Y7	Z7	X8	Y8	Z8	X9	Y9	Z9	X10	Y10	Z10	X11	Y11	Z11	X12	Y12	Z12	X13	Y13	Z13	X14	Y14	Z14	X15	Y15	Z15	X16	Y16	Z16	X17	Y17	Z17	X18	Y18	Z18	X19	Y19	Z19	X20	Y20	Z20	X21	Y21	Z21	X22	Y22	Z22	X23	Y23	Z23	X24	Y24	Z24	X25	Y25	Z25	X26	Y26	Z26	X27	Y27	Z27	X28	Y28	Z28	X29	Y29	Z29	X30	Y30	Z30	X31	Y31	Z31	X32	Y32	Z32	X33	Y33	Z33	X34	Y34	Z34	X35	Y35	Z35	X36	Y36	Z36	X37	Y37	Z37	X38	Y38	Z38	X39	Y39	Z39	X40	Y40	Z40	X41	Y41	Z41	X42	Y42	Z42	X43	Y43	Z43	X44	Y44	Z44	X45	Y45	Z45	X46	Y46	Z46	X47	Y47	Z47	X48	Y48	Z48	X49	Y49	Z49	X50	Y50	Z50	X51	Y51	Z51	

166	1.65000000	-243.61808	476.49616	-432.26739	-205.42481	416.97683	-425.79976	-256.76174	81.90792	-426.71709	-308.11822	50.97429	-473.43486	-147.29525	44.48201	-399.81619	-111.44839	71.53327	-450.19666	-220.65866	474.49416	-754.95539	-179.41588	391.02893	-749.44823	-243.07327	89.64092	-765.94096	-296.80195	49.31557	-720.41483	-140.00105	44.97354	-798.17140	-89.47146	66.75073	-746.19611	-221.53223	305.54238	-413.95454	-278.63764	428.99938	-407.31775	-301.15054	314.70013	-400.16451	-258.15521	411.82525	-788.73295	-267.01937	289.96568	-801.51008	-234.28325	734.22069	-396.51788	-215.49294	622.07166	-407.79140	-273.64586	590.34196	-409.78502	-343.73301	716.27637	-419.58750	-320.05839	603.08123	-435.53202	-214.50979	758.57364	-794.22821	-188.86408	622.64997	-775.86551	-325.16499	739.17352	-793.19405	-300.67469	606.82064	-757.75839	-196.22491	927.09810	-483.41587	-397.88770	968.42282	-565.07942	-186.84057	931.99839	-704.24653	-393.62840	967.68981	-647.21388	-266.93585	1402.68075	-594.80614	-212.83733	1369.75597	-448.08970	-205.10136	1366.60969	-735.03159	-144.80402	1333.89316	-572.27681	-149.63202	1329.25663	-604.50739	-181.08748	1260.28924	-388.35637	-215.91241	1039.07564	-395.73689	-187.61020	1059.15183	-338.05118	-95.36120	1040.51734	-328.69601	28.25166	974.14024	-346.68327	11.48897	941.84017	-334.75598	-184.12898	1265.35544	-803.25955	-191.35634	1036.93341	-799.82252	-167.25088	1066.51723	-854.97101	-66.99906	1030.28589	-856.07166	44.49236	976.00828	-829.89756	25.86513	940.47610	-839.15156	-280.97895	844.04667	-495.07481	-271.23398	850.10406	-702.26466	-269.71479	866.56813	-516.95472	-262.15904	865.26854	-662.66808	
167	1.66000000	-243.06642	476.44031	-432.05877	-204.86184	417.07136	-425.72448	-256.85291	81.87296	-426.68168	-308.18017	50.90139	-473.44323	-147.40569	44.94394	-399.47851	-111.47731	71.63442	-450.21573	-219.82715	474.55738	-755.22125	-178.74503	390.79244	-749.60404	-243.08598	89.61786	-765.92190	-296.85161	49.22457	-720.34965	-140.01723	45.06004	-798.09353	-89.59769	66.82295	-746.22271	-221.13379	305.76489	-413.69489	-277.51149	429.59569	-406.76904	-300.50036	315.08253	-399.82178	-257.24370	411.80516	-789.03952	-266.50130	289.96232	-801.55417	-234.66391	734.29056	-396.26493	-215.58511	622.15529	-407.64800	-273.46331	590.07841	-409.47013	-344.24679	715.76365	-419.22857	-320.06298	602.57662	-435.05526	-214.94736	758.50596	-794.12626	-188.71985	622.70005	-775.81536	-325.59028	738.64727	-793.32273	-300.56421	606.38778	-758.24348	-197.68023	926.72432	-483.61660	-399.11432	968.63417	-564.90662	-188.33005	931.63583	-704.29991	-394.94745	967.95905	-647.14145	-266.36229	1402.10393	-594.57861	-212.24832	1369.41318	-448.15526	-204.65098	1366.02864	-734.95507	-144.65345	1333.21954	-572.34351	-150.23354	1329.08736	-605.47906	-180.63652	1259.95197	-388.40473	-215.58543	1039.22392	-394.98168	-186.78697	1058.81430	-337.94856	-94.41173	1040.33102	-328.93375	29.24501	974.16933	-347.23050	12.49805	941.82263	-335.21803	-183.74604	1264.77572	-803.28253	-190.96114	1036.48364	-799.85238	-166.62493	1066.04974	-854.73600	-66.44866	1029.63951	-855.74063	44.88409	975.38663	-829.40050	26.29379	939.91567	-838.76283	-282.58736	843.90680	-495.12473	-272.98994	850.00859	-702.32028	-271.23742	866.38839	-517.09375	-263.85977	865.19500	-662.71925	
168	1.67000000	-242.32495	476.32661	-431.93266	-204.04803	417.04980	-425.71900	-256.89626	81.83152	-426.69252	-308.22771	50.81630	-473.43456	-147.57872	45.48701	-399.05083	-111.49233	71.69315	-450.26515	-218.79485	474.41708	-755.23954	-177.78983	390.48163	-749.74623	-243.04649	89.62237	-765.92750	-296.91150	49.12562	-720.27811	-140.00106	45.09499	-798.03628	-89.61890	66.85151	-746.19368	-220.63194	305.87836	-413.49637	-275.56200	430.66085	-406.41110	-300.08085	315.10089	-399.65260	-256.28654	411.70051	-789.24696	-265.82250	289.83691	-801.58356	-235.22681	734.38896	-396.18671	-215.48313	622.14133	-407.63030	-273.22102	589.81936	-409.11509	-344.79813	715.05804	-419.02335	-320.04257	601.92137	-434.62853	-215.41085	758.34095	-793.90781	-188.52728	622.74611	-775.70314	-326.01486	738.02682	-793.59834	-300.36831	605.88252	-758.77408	-199.17849	926.29767	-483.80726	-400.38670	968.77011	-564.76156	-189.90289	931.17348	-704.38677	-396.30048	968.04742	-647.22947	-265.74069	1401.37215	-594.14469	-211.88106	1368.80166	-448.40577	-204.28813	1365.52717	-734.96747	-144.44954	1332.45488	-572.40708	-149.91221	1328.21764	-605.48494	-180.12555	1259.52368	-388.58501	-215.08823	1039.20783	-394.37049	-185.94196	1058.46442	-337.85513	-93.46334	1040.19540	-329.18525	30.29033	974.23557	-347.77401	13.55699	941.81718	-335.67521	-183.33636	1264.22148	-803.39175	-190.48779	1036.01690	-799.92503	-165.98098	1065.59788	-854.70823	-65.81557	1029.00842	-855.36195	45.35230	974.75411	-828.91881	26.78419	939.24214	-838.23948	-284.24011	843.71073	-495.18275	-274.76347	849.77491	-702.38489	-272.84930	866.24612	-517.15626	-265.63693	864.97225	-662.71823	
169	1.68000000	-241.44049	476.24408	-431.68983	-203.11748	416.93172	-425.52777	-256.84070	81.87662	-426.66851	-308.23273	50.77330	-473.42644	-147.68055	45.67613	-398.96939	-111.46285	71.70731	-450.33739	-217.62689	474.12466	-755.09256	-176.68665	390.23313	-749.83282	-242.97305	89.64985	-765.93358	-296.94543	49.08693	-720.24081	-139.96756	45.12419	-798.01833	-89.56911	66.83442	-746.06308	-220.03248	305.76968	-413.49958	-274.82377	430.89092	-406.19139	-299.90002	314.89748	-399.65115	-255.22213	411.54300	-789.46600	-264.97384	289.71472	-801.87535	-235.86176	734.46241	-395.98283	-215.20090	622.13029	-407.55825	-272.90083	589.57708	-408.65510	-345.31303	714.23525	-418.60600	-319.91763	601.27577	-434.25134	-216.00137	758.11887	-793.71528	-188.30843	622.81502	-775.63837	-326.49274	737.33087	-794.01021	-300.11690	605.21751	-759.30715	-200.65666	925.75905	-484.34159	-401.80515	968.83773	-564.64322	-191.55424	930.58071	-704.25005	-397.80906	968.14037	-647.10559	-265.13865	1400.73499	-593.93180	-211.43811	1368.10038	-448.58260	-203.92613	1365.01957	-735.07963	-144.14114	1331.58744	-572.55710	-149.44245	1327.25670	-605.47089	-179.61705	1259.05004	-388.81709	-214.25145	1038.67118	-394.34154	-185.03761	1058.03377	-337.90149	-92.52757	1040.03429	-329.38948	31.35960	974.25008	-348.29634	14.72975	941.79699	-336.10383	-182.88548	1263.72477	-803.47898	-189.93225	1035.47590	-799.95989	-165.33317	1065.07497	-854.70162	-65.17665	1028.47257	-855.02832	45.90277	974.07491	-828.44988	27.33890	938.49680	-837.59908	-285.95526	843.41995	-495.24649	-276.71712	849.47462	-702.45958	-274.45977	866.06902	-517.52150	-267.42669	864.84198	-662.64368	
